<svg width="39" height="29" viewBox="0 0 39 29" fill="none" xmlns="http://www.w3.org/2000/svg">
<path d="M0.25 11.9109C0.362704 8.33118 1.49076 5.7098 3.32355 4.27215C5.15633 2.8345 7.27122 2.21429 9.7809 2.21429C11.1625 2.21429 12.6287 2.4397 14.1797 2.86267C14.7154 3.00356 14.9126 3.37017 14.7999 3.90552L14.4051 5.76582C14.2924 6.3015 13.954 6.49907 13.362 6.35785C12.0367 6.04791 10.965 5.87886 10.1472 5.87886C7.0173 5.87886 5.43843 7.85186 5.43843 11.8264C5.43843 16.3084 6.96094 17.8869 9.75272 17.8869C10.119 17.8869 10.5138 17.8587 10.9086 17.8024V12.6438C10.9086 12.0803 11.1907 11.7982 11.7546 11.7982H14.7436C15.3074 11.7982 15.5895 12.0803 15.5895 12.6438V19.8036C15.5895 20.3674 15.3074 20.734 14.7718 20.9028C13.0517 21.3821 11.2189 21.636 9.27306 21.636C3.26719 21.636 0.278176 18.3944 0.25 11.9109ZM22.925 7.59827V20.5365C22.925 21.1003 22.643 21.3821 22.0791 21.3821H18.808C18.2441 21.3821 17.962 21.1003 17.962 20.5365V7.59827C17.962 7.03441 18.2441 6.75265 18.808 6.75265H22.0791C22.643 6.75265 22.925 7.03441 22.925 7.59827ZM17.962 4.41303V1.42502C17.962 0.861498 18.2441 0.579403 18.808 0.579403H22.0791C22.643 0.579403 22.925 0.861498 22.925 1.42502V4.41303C22.925 4.97689 22.643 5.25865 22.0791 5.25865H18.808C18.2441 5.25865 17.962 4.97689 17.962 4.41303ZM24.5509 23.8344C24.5509 22.3968 25.425 21.2412 27.2014 20.3392C26.7221 19.8317 26.4685 19.2119 26.4685 18.4786C26.4685 17.8024 26.6939 17.1258 27.1733 16.4493C25.7353 15.3782 25.0302 13.9406 25.0302 12.1648C25.0302 8.81051 27.0324 6.52724 31.0082 6.49907L33.5461 6.61177C35.0968 6.5836 36.5351 6.44271 37.8601 6.24514C38.4242 6.16061 38.7345 6.38602 38.819 6.94988L38.9318 8.02125C39.0163 8.58477 38.7909 8.92322 38.2549 9.03592C37.5501 9.1768 36.845 9.26133 36.1403 9.26133C36.7323 10.1351 37.0426 11.1216 37.0426 12.1648C37.0426 15.4628 35.0404 17.5766 31.0928 17.5766C30.8392 17.5766 30.5289 17.5485 30.1059 17.5203C30.0496 17.6612 30.0214 17.8024 30.0214 17.9714C30.0214 18.1687 30.0777 18.3662 30.1623 18.5635H33.5461C36.7323 18.5635 38.6778 20.142 38.6778 22.5943C38.6778 24.2574 38.0013 25.582 36.6196 26.5688C35.238 27.5553 33.4049 28.0625 31.0646 28.0625C26.9197 28.0625 24.5509 26.5403 24.5509 23.8344ZM32.6438 22.115H29.9369C29.2881 22.3122 28.9497 22.7634 28.9497 23.4681C28.9497 24.1725 29.7675 24.511 31.4312 24.511C33.264 24.511 34.1945 24.0038 34.1945 22.9888C34.1945 22.3968 33.8564 22.115 32.6438 22.115ZM31.0928 9.93789C29.965 9.93789 29.6548 10.699 29.6548 12.193C29.6548 13.4331 30.1341 14.0533 31.0928 14.0533C31.9951 14.0533 32.5871 13.4331 32.5871 12.193C32.5871 10.7272 32.249 9.93789 31.0928 9.93789Z" fill="#D3C4EF" style="fill:#D3C4EF;fill:color(display-p3 0.8275 0.7686 0.9373);fill-opacity:1;"/>
</svg>
