<svg width="58" height="22" viewBox="0 0 58 22" fill="none" xmlns="http://www.w3.org/2000/svg">
<path d="M0.686192 19.4374L1.10914 17.2105C1.22197 16.6467 1.53211 16.4776 2.03972 16.703C4.09815 17.5768 5.7335 17.9998 6.94601 17.9998C8.38434 17.9998 9.08908 17.3796 9.08908 16.1673C9.08908 14.8145 8.41251 14.3352 6.60757 13.659L5.25421 13.1515L4.04166 12.644C3.53406 12.3904 3.13942 12.1932 2.8856 12.0238C2.40617 11.6575 1.56029 10.9809 1.22197 10.3329C0.883526 9.65597 0.601562 8.69764 0.601562 7.65479C0.601562 5.87902 1.27829 4.55408 2.60364 3.62393C3.92886 2.69379 5.6208 2.21446 7.65109 2.21446C9.08908 2.21446 10.6401 2.46804 12.2471 2.97554C12.7832 3.17278 13.0086 3.5394 12.8959 4.07508L12.4165 6.18896C12.3035 6.72464 11.9654 6.86553 11.4294 6.66829C9.9632 6.13261 8.72245 5.87903 7.67926 5.87903C6.18476 5.87903 5.42336 6.47106 5.42336 7.65479C5.42336 8.07777 5.59252 8.44406 5.93094 8.78217C6.29729 9.12062 6.63574 9.3742 7.00237 9.54326L8.72245 10.2198L10.1889 10.84C10.5552 10.9809 10.9782 11.2348 11.5139 11.5729C13.0086 12.5031 13.7418 13.7153 13.8827 15.9137C13.8827 17.6332 13.2622 19.0426 12.0217 20.114C10.781 21.1568 9.20178 21.6925 7.25629 21.6925C5.00039 21.6925 3.02662 21.3541 1.30647 20.6493C0.827173 20.4239 0.601563 20.0291 0.686192 19.4374ZM25.5137 20.7057L21.5379 15.0966H20.8046V20.5366C20.8046 21.1005 20.5229 21.3823 19.959 21.3823H16.6879C16.124 21.3823 15.8419 21.1005 15.8419 20.5366V2.58108C15.8419 1.98904 16.124 1.70729 16.6879 1.67911L19.959 1.42519C20.5229 1.39701 20.8046 1.67911 20.8046 2.21446V11.9674H21.5942L24.8372 7.59844C25.1756 7.14729 25.6264 6.92188 26.1906 6.92188H29.7435C30.3074 6.92188 30.4201 7.14729 30.0816 7.59844L25.6264 13.4051L30.9561 20.7057C31.2942 21.1568 31.1815 21.3823 30.6176 21.3823H26.839C26.2751 21.3823 25.824 21.1568 25.5137 20.7057ZM37.6546 7.59844V20.5366C37.6546 21.1005 37.3725 21.3823 36.8086 21.3823H33.5379C32.9737 21.3823 32.6919 21.1005 32.6919 20.5366V7.59844C32.6919 7.03458 32.9737 6.75282 33.5379 6.75282H36.8086C37.3725 6.75282 37.6546 7.03458 37.6546 7.59844ZM32.6919 4.4132V1.42519C32.6919 0.861668 32.9737 0.579573 33.5379 0.579573H36.8086C37.3725 0.579573 37.6546 0.861668 37.6546 1.42519V4.4132C37.6546 4.97706 37.3725 5.25882 36.8086 5.25882H33.5379C32.9737 5.25882 32.6919 4.97706 32.6919 4.4132ZM48.1629 18.6482L48.332 20.001C48.3884 20.593 48.1348 21.016 47.5709 21.2414C46.6968 21.5513 45.7378 21.7207 44.6383 21.7207C41.452 21.7207 40.2676 20.001 40.2676 16.8157V2.52439C40.2676 1.96087 40.5497 1.67911 41.1136 1.67911H44.3843C44.9485 1.67911 45.2306 1.96087 45.2306 2.52439V16.5621C45.2306 17.5768 45.7096 18.0843 46.6968 18.0843L47.2325 18.028C47.7681 17.9153 48.0784 18.1125 48.1629 18.6482ZM57.5808 18.6482L57.7499 20.001C57.8062 20.593 57.5526 21.016 56.9884 21.2414C56.1143 21.5513 55.1556 21.7207 54.0561 21.7207C50.8695 21.7207 49.6855 20.001 49.6855 16.8157V2.52439C49.6855 1.96087 49.9672 1.67911 50.5314 1.67911H53.8022C54.3664 1.67911 54.6481 1.96087 54.6481 2.52439V16.5621C54.6481 17.5768 55.1275 18.0843 56.1143 18.0843L56.65 18.028C57.186 17.9153 57.4959 18.1125 57.5808 18.6482Z" fill="white" style="fill:white;fill-opacity:1;"/>
</svg>
