<svg width="80" height="6" viewBox="0 0 80 6" fill="none" xmlns="http://www.w3.org/2000/svg">
<path d="M1.80809 1.37403C1.80809 1.32505 1.78361 1.30091 1.73474 1.30091H0.411601C0.383693 1.30091 0.363937 1.29621 0.352264 1.28682C0.340591 1.27742 0.333647 1.25898 0.331299 1.23114C0.324356 1.17747 0.320801 1.11676 0.320801 1.04967C0.320801 0.979565 0.324356 0.919186 0.331299 0.868201C0.333647 0.840024 0.340591 0.821574 0.352264 0.812182C0.363937 0.80279 0.383693 0.798097 0.411601 0.798097H3.83298C3.86092 0.798097 3.88068 0.80279 3.89236 0.812182C3.90389 0.821574 3.91084 0.840024 3.91318 0.868201C3.92026 0.919186 3.92369 0.979565 3.92369 1.04967C3.92369 1.11676 3.92026 1.17747 3.91318 1.23114C3.91084 1.25898 3.90389 1.27742 3.89236 1.28682C3.88068 1.29621 3.86092 1.30091 3.83298 1.30091H2.50975C2.46088 1.30091 2.43652 1.32505 2.43652 1.37403V4.80447C2.43652 4.837 2.43193 4.86049 2.4225 4.87458C2.41318 4.88598 2.39459 4.89437 2.36669 4.89906C2.30836 4.91047 2.22701 4.9165 2.12229 4.9165C2.0176 4.9165 1.93626 4.91047 1.87793 4.89906C1.85002 4.89437 1.83144 4.88598 1.82198 4.87458C1.81269 4.86049 1.80809 4.837 1.80809 4.80447V1.37403ZM4.93205 4.9477C4.5505 4.9477 4.24784 4.87222 4.02445 4.72095C3.8034 4.56967 3.69281 4.32548 3.69281 3.98803C3.69281 3.72975 3.75097 3.53084 3.86733 3.3913C3.98604 3.24908 4.15362 3.15281 4.37007 3.10183C4.58891 3.04816 4.86825 3.02133 5.20788 3.02133H6.03176C6.07855 3.02133 6.1016 2.99918 6.1016 2.95491C6.1016 2.66879 6.01566 2.47223 5.84335 2.36522C5.67355 2.25822 5.42681 2.20455 5.10319 2.20455C4.92867 2.20455 4.76461 2.21763 4.61091 2.24313C4.4597 2.26661 4.34099 2.28841 4.25479 2.30921C4.16895 2.32799 4.11656 2.33973 4.09767 2.34443L4.05588 2.35113C4.04186 2.35113 4.03032 2.34778 4.02089 2.34074C4.01395 2.33135 4.00831 2.31759 4.00348 2.29881C3.98735 2.24313 3.9791 2.16396 3.9791 2.06166C3.9791 2.01503 3.98041 1.9825 3.98252 1.96372C3.98735 1.93353 3.99298 1.91273 3.99993 1.90099C4.00935 1.88959 4.02797 1.87919 4.05588 1.86946C4.14668 1.84162 4.29108 1.81277 4.48878 1.78225C4.68914 1.75206 4.90559 1.73696 5.13817 1.73696C5.51302 1.73696 5.81323 1.78493 6.03884 1.88019C6.26468 1.97546 6.42871 2.12338 6.53101 2.32329C6.63567 2.52321 6.68833 2.78753 6.68833 3.11558V4.35466C6.68833 4.39625 6.71047 4.41738 6.75441 4.41738H6.99894C7.02477 4.41738 7.04322 4.42174 7.05462 4.43147C7.06871 4.44053 7.07709 4.45663 7.07911 4.48011C7.08615 4.52908 7.08984 4.58845 7.08984 4.65822C7.08984 4.72799 7.08615 4.78736 7.07911 4.836C7.07709 4.85948 7.06871 4.87558 7.05462 4.88497C7.04322 4.89436 7.02477 4.89906 6.99894 4.89906H6.3321C6.29722 4.89906 6.27072 4.89302 6.25177 4.88128C6.23563 4.86753 6.22386 4.84539 6.21692 4.8152L6.17499 4.59516C6.17274 4.57872 6.16804 4.56833 6.16097 4.56397C6.15402 4.55927 6.14144 4.55692 6.12256 4.55692H6.09465C6.07855 4.55692 6.06571 4.55793 6.05628 4.56028C6.04934 4.56263 6.03884 4.56967 6.02482 4.58141C5.95498 4.64179 5.88514 4.69545 5.81544 4.74174C5.74795 4.78837 5.6387 4.83499 5.48722 4.88128C5.33601 4.92589 5.15099 4.9477 4.93205 4.9477ZM5.1206 4.48346C5.4512 4.48346 5.69673 4.40564 5.85724 4.24967C6.02025 4.09369 6.1016 3.85185 6.1016 3.5238C6.1016 3.50065 6.09596 3.48321 6.08419 3.47147C6.07265 3.46007 6.05272 3.45403 6.02482 3.45403H5.19399C4.98696 3.45403 4.82277 3.46711 4.70171 3.4926C4.58089 3.5181 4.48878 3.56807 4.42589 3.64254C4.36548 3.717 4.33509 3.82501 4.33509 3.96724C4.33509 4.16715 4.40389 4.30334 4.54108 4.37546C4.67864 4.44757 4.87164 4.48346 5.1206 4.48346ZM7.78418 1.00405C7.78418 0.962122 7.76171 0.941326 7.71777 0.941326H7.40716C7.38133 0.941326 7.36154 0.936964 7.34778 0.927237C7.33605 0.917845 7.329 0.901746 7.32665 0.878601C7.31961 0.829628 7.31625 0.770255 7.31625 0.700486C7.31625 0.630716 7.31961 0.571347 7.32665 0.522375C7.329 0.49923 7.33605 0.483127 7.34778 0.473735C7.36154 0.464343 7.38133 0.45965 7.40716 0.45965H8.25177C8.29839 0.45965 8.33227 0.46904 8.35307 0.487824C8.3742 0.503925 8.3846 0.535453 8.3846 0.581742V4.35466C8.3846 4.39625 8.40674 4.41738 8.45101 4.41738H8.69521C8.7207 4.41738 8.73948 4.42174 8.75122 4.43147C8.76497 4.44053 8.77302 4.45663 8.77571 4.48011C8.78242 4.52908 8.78611 4.58845 8.78611 4.65822C8.78611 4.72799 8.78242 4.78736 8.77571 4.836C8.77302 4.85948 8.76497 4.87558 8.75122 4.88497C8.73948 4.89436 8.7207 4.89906 8.69521 4.89906H8.39164C8.24003 4.89906 8.12263 4.88732 8.03911 4.86384C7.95525 4.83868 7.89118 4.78837 7.8469 4.7139C7.80498 4.63709 7.78418 4.52439 7.78418 4.37546V1.00405ZM9.94435 3.54493C9.91885 3.54493 9.90007 3.55063 9.88833 3.56237C9.87927 3.57177 9.87592 3.58787 9.87793 3.61101C9.91785 4.18091 10.3157 4.46602 11.0721 4.46602C11.2814 4.46602 11.4689 4.44623 11.6339 4.40698C11.8016 4.36506 11.9566 4.31944 12.0985 4.2708C12.1173 4.26611 12.1297 4.26376 12.1367 4.26376C12.1696 4.26376 12.189 4.28355 12.1961 4.32313C12.2125 4.41134 12.2206 4.5056 12.2206 4.6059C12.2206 4.65722 12.2159 4.69076 12.2065 4.70686C12.1998 4.7233 12.1776 4.74074 12.1404 4.75919C12.0542 4.79877 11.9147 4.84069 11.7215 4.88497C11.5282 4.9269 11.3049 4.9477 11.0509 4.9477C10.4854 4.9477 10.0446 4.82459 9.72799 4.57772C9.41135 4.32916 9.25302 3.91726 9.25302 3.34233C9.25302 2.83516 9.38217 2.44103 9.64078 2.15927C9.90141 1.87784 10.3002 1.73696 10.8383 1.73696C11.3595 1.73696 11.7526 1.86275 12.018 2.11399C12.286 2.36288 12.4195 2.73285 12.4195 3.22392C12.4195 3.31684 12.4151 3.40069 12.4057 3.47482C12.4034 3.50535 12.395 3.52514 12.3812 3.5342C12.3695 3.54124 12.3477 3.54493 12.3148 3.54493H9.94435ZM9.86753 3.05621C9.86753 3.09344 9.89101 3.11189 9.9373 3.11189H11.7456C11.7926 3.11189 11.8157 3.09009 11.8157 3.04581C11.8157 2.76204 11.7342 2.54669 11.5712 2.40011C11.4085 2.25118 11.171 2.17671 10.8591 2.17671C10.5471 2.17671 10.3086 2.24883 10.1433 2.39306C9.97822 2.53495 9.88632 2.75265 9.86753 3.04581V3.05621ZM15.6517 3.10518C15.6517 2.88883 15.6272 2.71642 15.5782 2.58862C15.5319 2.45847 15.4514 2.36288 15.3374 2.3025C15.2233 2.24212 15.065 2.2116 14.8624 2.2116C14.5481 2.2116 14.317 2.29176 14.1677 2.45243C14.0212 2.61042 13.948 2.8469 13.948 3.16086V4.80447C13.948 4.837 13.9433 4.86049 13.9339 4.87458C13.9246 4.88598 13.9051 4.89437 13.8746 4.89906C13.8095 4.90812 13.7337 4.91281 13.6475 4.91281C13.5616 4.91281 13.4858 4.90812 13.4207 4.89906C13.3905 4.89437 13.3708 4.88598 13.3614 4.87458C13.3523 4.86049 13.3473 4.837 13.3473 4.80447V2.33034C13.3473 2.28841 13.3255 2.26761 13.2809 2.26761H12.9703C12.9448 2.26761 12.925 2.26292 12.9109 2.25353C12.8995 2.24413 12.8924 2.22803 12.8901 2.20455C12.883 2.15591 12.8794 2.09655 12.8794 2.02678C12.8794 1.95701 12.883 1.89763 12.8901 1.84866C12.8924 1.82518 12.8995 1.80908 12.9109 1.80003C12.925 1.79063 12.9448 1.78594 12.9703 1.78594H13.7105C13.7454 1.78594 13.7723 1.79298 13.7907 1.80673C13.8095 1.81847 13.8212 1.83927 13.8256 1.86946L13.8605 2.10694C13.8632 2.13042 13.8769 2.14183 13.9024 2.14183H13.9303C13.9443 2.14183 13.9547 2.14082 13.9618 2.13847C13.9688 2.13612 13.9792 2.12774 13.9933 2.11399C14.056 2.05361 14.1225 1.99793 14.1922 1.94627C14.2643 1.89529 14.368 1.84766 14.5028 1.80338C14.6404 1.7591 14.8047 1.73696 14.9952 1.73696C15.4377 1.73696 15.7577 1.83357 15.9552 2.02678C16.1532 2.21764 16.2521 2.5212 16.2521 2.93747V4.35466C16.2521 4.39625 16.2742 4.41738 16.3182 4.41738H16.5627C16.5885 4.41738 16.607 4.42174 16.6187 4.43147C16.6325 4.44053 16.6409 4.45663 16.6429 4.48011C16.6499 4.52908 16.6536 4.58845 16.6536 4.65822C16.6536 4.72799 16.6499 4.78736 16.6429 4.836C16.6409 4.85948 16.6325 4.87558 16.6187 4.88497C16.607 4.89436 16.5885 4.89906 16.5627 4.89906H16.2588C16.1079 4.89906 15.9901 4.88732 15.9063 4.86384C15.8228 4.83868 15.7587 4.78837 15.7144 4.7139C15.6725 4.63709 15.6517 4.52439 15.6517 4.37546V3.10518ZM17.8833 1.72321C17.8833 1.7648 17.9051 1.78594 17.9494 1.78594H18.8956C18.9211 1.78594 18.9396 1.79063 18.9513 1.80003C18.9654 1.80908 18.9734 1.82518 18.9758 1.84866C18.9828 1.89763 18.9865 1.95701 18.9865 2.02678C18.9865 2.09655 18.9828 2.15591 18.9758 2.20455C18.9734 2.22803 18.9654 2.24413 18.9513 2.25353C18.9396 2.26292 18.9211 2.26761 18.8956 2.26761H17.9494C17.9051 2.26761 17.8833 2.28841 17.8833 2.33034V3.79952C17.8833 3.97663 17.9061 4.11281 17.9531 4.20808C17.9994 4.30099 18.0668 4.36506 18.1553 4.39994C18.2462 4.43248 18.365 4.44891 18.5116 4.44891C18.6417 4.44891 18.792 4.43248 18.962 4.39994C18.9687 4.39726 18.9771 4.39625 18.9865 4.39625C19.005 4.39625 19.0177 4.40229 19.0248 4.4137C19.0338 4.42309 19.0409 4.43919 19.0459 4.46267C19.0573 4.52774 19.0633 4.60221 19.0633 4.68606C19.0633 4.72564 19.0617 4.75483 19.0597 4.77327C19.0573 4.80112 19.0513 4.82091 19.0422 4.83265C19.0328 4.84204 19.0154 4.85009 18.9899 4.85713C18.8383 4.89906 18.6373 4.91986 18.3858 4.91986C17.6505 4.91986 17.2825 4.56833 17.2825 3.86594V0.993651C17.2825 0.961114 17.2872 0.938977 17.2966 0.927237C17.3057 0.913484 17.3258 0.904093 17.356 0.899397C17.4211 0.890006 17.4969 0.885308 17.5831 0.885308C17.669 0.885308 17.7444 0.890006 17.8098 0.899397C17.84 0.904093 17.8598 0.913484 17.8692 0.927237C17.8783 0.938977 17.8833 0.961114 17.8833 0.993651V1.72321ZM25.0303 0.89604C25.0467 0.856459 25.0665 0.830634 25.0897 0.819229C25.1131 0.805141 25.148 0.798097 25.1943 0.798097H25.9729C26.0198 0.798097 26.0534 0.808829 26.0742 0.829626C26.0976 0.848074 26.1104 0.881953 26.1127 0.930926L26.3848 4.82225V4.84304C26.3848 4.86149 26.3804 4.87558 26.371 4.88497C26.362 4.89202 26.3455 4.89638 26.322 4.89906C26.2687 4.90812 26.1919 4.91281 26.0916 4.91281C25.9779 4.91281 25.8927 4.90812 25.8367 4.89906C25.8088 4.89638 25.7904 4.89101 25.781 4.88128C25.7719 4.87223 25.7659 4.85478 25.7635 4.82929L25.5713 1.39852C25.5713 1.37504 25.5599 1.36363 25.5365 1.36363H25.47C25.4586 1.36363 25.4506 1.36598 25.4459 1.37067C25.4435 1.37302 25.4402 1.37772 25.4355 1.38443C25.4331 1.39147 25.4308 1.39617 25.4285 1.39852L24.2447 4.09638C24.2263 4.13797 24.2088 4.1648 24.1924 4.17654C24.1763 4.18795 24.1461 4.19399 24.1018 4.19399H23.5081C23.4642 4.19399 23.4337 4.18795 23.4172 4.17654C23.4011 4.1648 23.3837 4.13797 23.3652 4.09638L22.1815 1.39852C22.1795 1.39617 22.1758 1.39147 22.1711 1.38443C22.1691 1.37504 22.1641 1.36933 22.157 1.36698C22.1526 1.36464 22.1466 1.36363 22.1399 1.36363H22.0732C22.0503 1.36363 22.0386 1.37504 22.0386 1.39852L21.8464 4.82929C21.8444 4.85478 21.8383 4.87223 21.829 4.88128C21.8219 4.89101 21.8045 4.89638 21.7766 4.89906C21.7116 4.91047 21.6287 4.9165 21.5287 4.9165C21.4335 4.9165 21.3506 4.91047 21.2809 4.89906C21.253 4.89638 21.2342 4.88967 21.2252 4.87793C21.2158 4.86652 21.2134 4.84774 21.2178 4.82225L21.4905 0.930926C21.4929 0.881953 21.5043 0.848074 21.5251 0.829626C21.5485 0.808829 21.5834 0.798097 21.63 0.798097H22.4153C22.4622 0.798097 22.4971 0.805141 22.5203 0.819229C22.5434 0.830634 22.5635 0.856459 22.5796 0.89604L23.7315 3.53788C23.7386 3.55164 23.7446 3.56103 23.7493 3.56573C23.756 3.57042 23.7667 3.57277 23.7805 3.57277H23.8295C23.8432 3.57277 23.8539 3.57042 23.8607 3.56573C23.8677 3.56103 23.8747 3.55164 23.8818 3.53788L25.0303 0.89604ZM27.8298 3.54493C27.8043 3.54493 27.7855 3.55063 27.7738 3.56237C27.7644 3.57177 27.761 3.58787 27.7634 3.61101C27.803 4.18091 28.2008 4.46602 28.9575 4.46602C29.1668 4.46602 29.3543 4.44623 29.5194 4.40698C29.6871 4.36506 29.8417 4.31944 29.9836 4.2708C30.0024 4.26611 30.0151 4.26376 30.0222 4.26376C30.0547 4.26376 30.0745 4.28355 30.0815 4.32313C30.098 4.41134 30.106 4.5056 30.106 4.6059C30.106 4.65722 30.1013 4.69076 30.0919 4.70686C30.0849 4.7233 30.0631 4.74074 30.0255 4.75919C29.9393 4.79877 29.7998 4.84069 29.6066 4.88497C29.4137 4.9269 29.1903 4.9477 28.9364 4.9477C28.3708 4.9477 27.9298 4.82459 27.6131 4.57772C27.2965 4.32916 27.1385 3.91726 27.1385 3.34233C27.1385 2.83516 27.2676 2.44103 27.5259 2.15927C27.7869 1.87784 28.186 1.73696 28.7234 1.73696C29.2446 1.73696 29.6381 1.86275 29.9034 2.11399C30.1711 2.36288 30.3049 2.73285 30.3049 3.22392C30.3049 3.31684 30.3002 3.40069 30.2908 3.47482C30.2885 3.50535 30.2804 3.52514 30.2667 3.5342C30.255 3.54124 30.2325 3.54493 30.2003 3.54493H27.8298ZM27.753 3.05621C27.753 3.09344 27.7761 3.11189 27.8228 3.11189H29.6311C29.6777 3.11189 29.7008 3.09009 29.7008 3.04581C29.7008 2.76204 29.6196 2.54669 29.4566 2.40011C29.2936 2.25118 29.0561 2.17671 28.7445 2.17671C28.4326 2.17671 28.1937 2.24883 28.0287 2.39306C27.8637 2.53495 27.7714 2.75265 27.753 3.04581V3.05621ZM31.5661 3.54493C31.5407 3.54493 31.5219 3.55063 31.5105 3.56237C31.5011 3.57177 31.4977 3.58787 31.5001 3.61101C31.5396 4.18091 31.9375 4.46602 32.6939 4.46602C32.9035 4.46602 33.091 4.44623 33.256 4.40698C33.4234 4.36506 33.5784 4.31944 33.7203 4.2708C33.7387 4.26611 33.7518 4.26376 33.7589 4.26376C33.7911 4.26376 33.8112 4.28355 33.8182 4.32313C33.8343 4.41134 33.8427 4.5056 33.8427 4.6059C33.8427 4.65722 33.838 4.69076 33.8286 4.70686C33.8216 4.7233 33.7994 4.74074 33.7622 4.75919C33.676 4.79877 33.5365 4.84069 33.3433 4.88497C33.1504 4.9269 32.9267 4.9477 32.6731 4.9477C32.1075 4.9477 31.6664 4.82459 31.3498 4.57772C31.0331 4.32916 30.8752 3.91726 30.8752 3.34233C30.8752 2.83516 31.0043 2.44103 31.2626 2.15927C31.5235 1.87784 31.9224 1.73696 32.4601 1.73696C32.9813 1.73696 33.3748 1.86275 33.6401 2.11399C33.9078 2.36288 34.0416 2.73285 34.0416 3.22392C34.0416 3.31684 34.0369 3.40069 34.0275 3.47482C34.0252 3.50535 34.0171 3.52514 34.003 3.5342C33.9916 3.54124 33.9692 3.54493 33.9366 3.54493H31.5661ZM31.4893 3.05621C31.4893 3.09344 31.5128 3.11189 31.5594 3.11189H33.3677C33.4144 3.11189 33.4375 3.09009 33.4375 3.04581C33.4375 2.76204 33.3563 2.54669 33.1933 2.40011C33.0303 2.25118 32.7928 2.17671 32.4809 2.17671C32.1693 2.17671 31.9304 2.24883 31.7654 2.39306C31.6 2.53495 31.5081 2.75265 31.4893 3.04581V3.05621ZM35.3659 1.72321C35.3659 1.7648 35.3884 1.78594 35.4323 1.78594H36.3786C36.404 1.78594 36.4228 1.79063 36.4342 1.80003C36.4483 1.80908 36.4567 1.82518 36.4587 1.84866C36.4658 1.89763 36.4691 1.95701 36.4691 2.02678C36.4691 2.09655 36.4658 2.15591 36.4587 2.20455C36.4567 2.22803 36.4483 2.24413 36.4342 2.25353C36.4228 2.26292 36.404 2.26761 36.3786 2.26761H35.4323C35.3884 2.26761 35.3659 2.28841 35.3659 2.33034V3.79952C35.3659 3.97663 35.3894 4.11281 35.436 4.20808C35.4826 4.30099 35.55 4.36506 35.6383 4.39994C35.7292 4.43248 35.8479 4.44891 35.9945 4.44891C36.125 4.44891 36.2752 4.43248 36.4446 4.39994C36.4517 4.39726 36.4601 4.39625 36.4691 4.39625C36.4879 4.39625 36.5007 4.40229 36.5077 4.4137C36.5171 4.42309 36.5241 4.43919 36.5285 4.46267C36.5406 4.52774 36.5459 4.60221 36.5459 4.68606C36.5459 4.72564 36.5449 4.75483 36.5426 4.77327C36.5406 4.80112 36.5345 4.82091 36.5251 4.83265C36.5157 4.84204 36.4986 4.85009 36.4728 4.85713C36.3215 4.89906 36.1199 4.91986 35.8687 4.91986C35.1334 4.91986 34.7655 4.56833 34.7655 3.86594V0.993651C34.7655 0.961114 34.7705 0.938977 34.7796 0.927237C34.789 0.913484 34.8087 0.904093 34.8389 0.899397C34.904 0.890006 34.9798 0.885308 35.0657 0.885308C35.1519 0.885308 35.2277 0.890006 35.2928 0.899397C35.323 0.904093 35.3431 0.913484 35.3521 0.927237C35.3615 0.938977 35.3659 0.961114 35.3659 0.993651V1.72321ZM39.4749 2.35113C39.4628 2.34879 39.3991 2.33269 39.2827 2.3025C39.1663 2.27197 39.0197 2.24413 38.843 2.21864C38.6658 2.1908 38.5079 2.17671 38.368 2.17671C38.1285 2.17671 37.9353 2.20556 37.7887 2.26392C37.6441 2.32229 37.572 2.42896 37.572 2.58527C37.572 2.68288 37.6022 2.75734 37.6629 2.80833C37.7233 2.85965 37.8061 2.89789 37.9108 2.92371C38.0175 2.94921 38.1922 2.98175 38.4344 3.02133C38.7554 3.07265 39.008 3.12833 39.1921 3.18871C39.3756 3.24908 39.5202 3.34367 39.6248 3.47147C39.7295 3.59726 39.7822 3.77269 39.7822 3.99843C39.7822 4.63139 39.2804 4.9477 38.2774 4.9477C38.049 4.9477 37.8095 4.92925 37.5583 4.89201C37.309 4.85243 37.1323 4.81286 37.0273 4.77327C36.9971 4.76187 36.9773 4.75013 36.9682 4.73839C36.9612 4.7243 36.9552 4.7025 36.9508 4.67197C36.9485 4.65554 36.9471 4.63038 36.9471 4.59516C36.9471 4.50459 36.9552 4.42308 36.9716 4.35097C36.9786 4.31172 36.9994 4.2916 37.0347 4.2916C37.0484 4.2916 37.0588 4.2926 37.0658 4.29529C37.2614 4.34627 37.464 4.39289 37.6733 4.43482C37.8826 4.47407 38.0909 4.4942 38.2982 4.4942C38.5635 4.4942 38.7752 4.46367 38.9335 4.40329C39.0919 4.34057 39.171 4.22082 39.171 4.04405C39.171 3.94879 39.1489 3.87399 39.1046 3.82032C39.0627 3.76464 38.9848 3.71935 38.8708 3.68447C38.7591 3.64723 38.59 3.61101 38.3646 3.57612C38.0409 3.52749 37.785 3.47483 37.5965 3.41915C37.4103 3.36346 37.2591 3.27491 37.1427 3.15382C37.0286 3.03072 36.9716 2.8573 36.9716 2.6339C36.9716 2.2874 37.1078 2.05093 37.3801 1.92548C37.6525 1.80002 37.999 1.73696 38.4207 1.73696C38.6531 1.73696 38.8728 1.75575 39.0801 1.79298C39.2897 1.83022 39.435 1.86375 39.5168 1.89428C39.5447 1.90334 39.5631 1.91508 39.5725 1.92883C39.5816 1.94057 39.5876 1.95935 39.59 1.98485C39.5923 2.00128 39.5933 2.02778 39.5933 2.06502C39.5933 2.16296 39.5853 2.24313 39.5692 2.30585C39.5641 2.3243 39.5571 2.33839 39.548 2.34778C39.541 2.35482 39.5306 2.35818 39.5168 2.35818L39.4749 2.35113ZM41.8964 2.8469C41.8964 1.43005 42.584 0.721282 43.9596 0.721282C45.3352 0.721282 46.0228 1.43005 46.0228 2.8469C46.0228 4.26376 45.3352 4.97218 43.9596 4.97218C42.584 4.97218 41.8964 4.26376 41.8964 2.8469ZM42.5387 2.8469C42.5387 3.3913 42.6518 3.79952 42.8772 4.07189C43.1033 4.34392 43.4638 4.48011 43.9596 4.48011C44.4554 4.48011 44.8163 4.34392 45.0417 4.07189C45.2678 3.79952 45.3805 3.3913 45.3805 2.8469C45.3805 2.3025 45.2678 1.89428 45.0417 1.62191C44.8163 1.34954 44.4554 1.2137 43.9596 1.2137C43.4638 1.2137 43.1033 1.34954 42.8772 1.62191C42.6518 1.89428 42.5387 2.3025 42.5387 2.8469ZM47.6362 2.10694C47.7667 1.97881 47.919 1.88589 48.0938 1.82786C48.2702 1.76749 48.4708 1.73696 48.6942 1.73696C49.136 1.73696 49.4922 1.86376 49.7625 2.11734C50.0346 2.37126 50.1708 2.77244 50.1708 3.32153C50.1708 3.68447 50.1057 3.98803 49.9752 4.23223C49.8474 4.47407 49.675 4.65453 49.4586 4.77327C49.2423 4.88967 49.0014 4.9477 48.7361 4.9477C48.5241 4.9477 48.3417 4.9269 48.1877 4.88497C48.0344 4.84069 47.8851 4.76623 47.7409 4.66157C47.7292 4.65218 47.7201 4.64648 47.7131 4.64414C47.706 4.64179 47.6966 4.64078 47.6852 4.64078H47.6503C47.6315 4.64078 47.6188 4.64413 47.6118 4.65118C47.6071 4.65554 47.6047 4.66627 47.6047 4.68237V5.85537C47.6047 5.88757 47.6 5.91005 47.591 5.92145C47.5816 5.93554 47.5618 5.94493 47.5316 5.94929C47.4662 5.95868 47.3904 5.96338 47.3045 5.96338C47.2183 5.96338 47.1428 5.95868 47.0778 5.94929C47.0472 5.94493 47.0274 5.93554 47.0184 5.92145C47.009 5.91005 47.0043 5.88757 47.0043 5.85537V2.33034C47.0043 2.28841 46.9822 2.26761 46.9382 2.26761H46.6273C46.6014 2.26761 46.582 2.26292 46.5679 2.25353C46.5562 2.24413 46.5491 2.22803 46.5471 2.20455C46.5401 2.15591 46.5367 2.09655 46.5367 2.02678C46.5367 1.95701 46.5401 1.89763 46.5471 1.84866C46.5491 1.82518 46.5562 1.80908 46.5679 1.80003C46.582 1.79063 46.6014 1.78594 46.6273 1.78594H47.3676C47.4025 1.78594 47.429 1.79298 47.4477 1.80673C47.4662 1.81847 47.4779 1.83927 47.4826 1.86946L47.5175 2.0999C47.5199 2.12338 47.5336 2.13478 47.5594 2.13478H47.5735C47.5876 2.13478 47.598 2.13378 47.6047 2.13143C47.6118 2.12908 47.6222 2.12103 47.6362 2.10694ZM48.558 4.4942C48.9186 4.4942 49.1779 4.39625 49.3365 4.20103C49.4945 4.00313 49.5737 3.71935 49.5737 3.34937C49.5737 2.97705 49.4945 2.69227 49.3365 2.49436C49.1779 2.29646 48.9186 2.19784 48.558 2.19784C48.1994 2.19784 47.9412 2.29646 47.7828 2.49436C47.6269 2.69227 47.549 2.97705 47.549 3.34937C47.549 3.7217 47.6269 4.00547 47.7828 4.20103C47.9412 4.39625 48.1994 4.4942 48.558 4.4942ZM51.7342 2.10694C51.8647 1.97881 52.017 1.88589 52.1914 1.82786C52.3685 1.76749 52.5684 1.73696 52.7918 1.73696C53.2342 1.73696 53.5905 1.86376 53.8601 2.11734C54.1325 2.37126 54.2687 2.77244 54.2687 3.32153C54.2687 3.68447 54.2036 3.98803 54.0731 4.23223C53.9453 4.47407 53.7729 4.65453 53.5562 4.77327C53.3399 4.88967 53.0991 4.9477 52.8337 4.9477C52.6221 4.9477 52.4393 4.9269 52.2856 4.88497C52.132 4.84069 51.9834 4.76623 51.8389 4.66157C51.8271 4.65218 51.8177 4.64648 51.811 4.64414C51.804 4.64179 51.7946 4.64078 51.7828 4.64078H51.748C51.7295 4.64078 51.7168 4.64413 51.7097 4.65118C51.705 4.65554 51.7027 4.66627 51.7027 4.68237V5.85537C51.7027 5.88757 51.698 5.91005 51.6886 5.92145C51.6795 5.93554 51.6597 5.94493 51.6295 5.94929C51.5645 5.95868 51.4887 5.96338 51.4025 5.96338C51.3166 5.96338 51.2408 5.95868 51.1754 5.94929C51.1455 5.94493 51.1257 5.93554 51.116 5.92145C51.1069 5.91005 51.1022 5.88757 51.1022 5.85537V2.33034C51.1022 2.28841 51.0801 2.26761 51.0358 2.26761H50.7252C50.6997 2.26761 50.6796 2.26292 50.6659 2.25353C50.6541 2.24413 50.6471 2.22803 50.6447 2.20455C50.638 2.15591 50.6343 2.09655 50.6343 2.02678C50.6343 1.95701 50.638 1.89763 50.6447 1.84866C50.6471 1.82518 50.6541 1.80908 50.6659 1.80003C50.6796 1.79063 50.6997 1.78594 50.7252 1.78594H51.4652C51.5001 1.78594 51.5269 1.79298 51.5457 1.80673C51.5645 1.81847 51.5759 1.83927 51.5806 1.86946L51.6155 2.0999C51.6178 2.12338 51.6319 2.13478 51.6574 2.13478H51.6711C51.6852 2.13478 51.6956 2.13378 51.7027 2.13143C51.7097 2.12908 51.7201 2.12103 51.7342 2.10694ZM52.6556 4.4942C53.0165 4.4942 53.2762 4.39625 53.4342 4.20103C53.5928 4.00313 53.6716 3.71935 53.6716 3.34937C53.6716 2.97705 53.5928 2.69227 53.4342 2.49436C53.2762 2.29646 53.0165 2.19784 52.6556 2.19784C52.2974 2.19784 52.0391 2.29646 51.8808 2.49436C51.7248 2.69227 51.6466 2.97705 51.6466 3.34937C51.6466 3.7217 51.7248 4.00547 51.8808 4.20103C52.0391 4.39625 52.2974 4.4942 52.6556 4.4942ZM56.4695 4.9477C55.9294 4.9477 55.5232 4.81051 55.2508 4.53612C54.9788 4.25906 54.8426 3.86124 54.8426 3.34233C54.8426 2.82342 54.9788 2.42694 55.2508 2.15223C55.5232 1.8755 55.9294 1.73696 56.4695 1.73696C57.0095 1.73696 57.4157 1.8755 57.6877 2.15223C57.9601 2.42694 58.0963 2.82342 58.0963 3.34233C58.0963 3.86124 57.9601 4.25906 57.6877 4.53612C57.4157 4.81051 57.0095 4.9477 56.4695 4.9477ZM56.4695 4.4942C56.8347 4.4942 57.0977 4.39524 57.2584 4.19734C57.4191 3.99742 57.4992 3.71231 57.4992 3.34233C57.4992 2.97235 57.4191 2.68858 57.2584 2.49067C57.0977 2.29076 56.8347 2.1908 56.4695 2.1908C56.1038 2.1908 55.8409 2.29076 55.6802 2.49067C55.5199 2.68858 55.4397 2.97235 55.4397 3.34233C55.4397 3.71231 55.5199 3.99742 55.6802 4.19734C55.8409 4.39524 56.1038 4.4942 56.4695 4.4942ZM60.8092 2.25722C60.7297 2.25017 60.6543 2.24648 60.5822 2.24648C60.1981 2.24648 59.9318 2.37462 59.7828 2.63055C59.7339 2.71642 59.698 2.82141 59.6745 2.94451C59.651 3.06761 59.6396 3.22963 59.6396 3.42954V4.80447C59.6396 4.837 59.6349 4.86049 59.6258 4.87458C59.6161 4.88598 59.5967 4.89437 59.5665 4.89906C59.5011 4.90812 59.4256 4.91281 59.3394 4.91281C59.2532 4.91281 59.1777 4.90812 59.1126 4.89906C59.0821 4.89437 59.0627 4.88598 59.0533 4.87458C59.0435 4.86049 59.0392 4.837 59.0392 4.80447V2.33034C59.0392 2.28841 59.017 2.26761 58.9728 2.26761H58.6622C58.6367 2.26761 58.6165 2.26292 58.6028 2.25353C58.5914 2.24413 58.5843 2.22803 58.5817 2.20455C58.575 2.15591 58.5713 2.09655 58.5713 2.02678C58.5713 1.95701 58.575 1.89763 58.5817 1.84866C58.5843 1.82518 58.5914 1.80908 58.6028 1.80003C58.6165 1.79063 58.6367 1.78594 58.6622 1.78594H59.4021C59.437 1.78594 59.4642 1.79298 59.4826 1.80673C59.5011 1.81847 59.5128 1.83927 59.5175 1.86946L59.5524 2.1103C59.5547 2.13378 59.5688 2.14518 59.5943 2.14518H59.6326C59.649 2.14518 59.6664 2.13612 59.6849 2.11734C59.9177 1.86376 60.2202 1.73696 60.5926 1.73696C60.6858 1.73696 60.764 1.74065 60.8267 1.74736C60.8545 1.75004 60.873 1.75709 60.8824 1.76849C60.8918 1.77788 60.8988 1.79633 60.9035 1.82418C60.9105 1.86845 60.9139 1.92547 60.9139 1.99524C60.9139 2.07675 60.9079 2.14652 60.8965 2.20455C60.8918 2.22803 60.8837 2.24313 60.872 2.25017C60.8602 2.25722 60.8394 2.25956 60.8092 2.25722ZM62.0745 1.72321C62.0745 1.7648 62.097 1.78594 62.1409 1.78594H63.0868C63.1126 1.78594 63.1314 1.79063 63.1428 1.80003C63.1569 1.80908 63.1653 1.82518 63.1673 1.84866C63.1744 1.89763 63.1777 1.95701 63.1777 2.02678C63.1777 2.09655 63.1744 2.15591 63.1673 2.20455C63.1653 2.22803 63.1569 2.24413 63.1428 2.25353C63.1314 2.26292 63.1126 2.26761 63.0868 2.26761H62.1409C62.097 2.26761 62.0745 2.28841 62.0745 2.33034V3.79952C62.0745 3.97663 62.098 4.11281 62.1443 4.20808C62.1912 4.30099 62.2586 4.36506 62.3469 4.39994C62.4378 4.43248 62.5562 4.44891 62.7031 4.44891C62.8336 4.44891 62.9835 4.43248 63.1532 4.39994C63.1603 4.39726 63.1687 4.39625 63.1777 4.39625C63.1965 4.39625 63.2092 4.40229 63.216 4.4137C63.2257 4.42309 63.2324 4.43919 63.2371 4.46267C63.2488 4.52774 63.2545 4.60221 63.2545 4.68606C63.2545 4.72564 63.2535 4.75483 63.2512 4.77327C63.2488 4.80112 63.2431 4.82091 63.2337 4.83265C63.2243 4.84204 63.2072 4.85009 63.1814 4.85713C63.0301 4.89906 62.8285 4.91986 62.5773 4.91986C61.842 4.91986 61.4741 4.56833 61.4741 3.86594V0.993651C61.4741 0.961114 61.4791 0.938977 61.4882 0.927237C61.4975 0.913484 61.5173 0.904093 61.5472 0.899397C61.6126 0.890006 61.6884 0.885308 61.7743 0.885308C61.8605 0.885308 61.9363 0.890006 62.0014 0.899397C62.0316 0.904093 62.0513 0.913484 62.0607 0.927237C62.0701 0.938977 62.0745 0.961114 62.0745 0.993651V1.72321ZM66.9838 4.35466C66.9838 4.39625 67.006 4.41738 67.0503 4.41738H67.2944C67.3203 4.41738 67.3387 4.42174 67.3505 4.43147C67.3645 4.44053 67.3726 4.45663 67.3749 4.48011C67.382 4.52908 67.3853 4.58845 67.3853 4.65822C67.3853 4.72799 67.382 4.78736 67.3749 4.836C67.3726 4.85948 67.3645 4.87558 67.3505 4.88497C67.3387 4.89436 67.3203 4.89906 67.2944 4.89906H66.6279C66.5931 4.89906 66.5662 4.89302 66.5474 4.88128C66.531 4.86753 66.5196 4.84539 66.5126 4.8152L66.4706 4.59516C66.4683 4.57872 66.4639 4.56833 66.4565 4.56397C66.4498 4.55927 66.4368 4.55692 66.4183 4.55692H66.3905C66.374 4.55692 66.3613 4.55793 66.3519 4.56028C66.3452 4.56263 66.3344 4.56967 66.3207 4.58141C66.3086 4.59281 66.2704 4.63273 66.2053 4.69981C66.1402 4.76757 66.0379 4.8256 65.898 4.87458C65.7585 4.92321 65.5945 4.9477 65.406 4.9477C65.1058 4.9477 64.8612 4.90342 64.6727 4.8152C64.4842 4.7243 64.3433 4.58141 64.2504 4.38585C64.1595 4.19063 64.1142 3.93101 64.1142 3.60766V2.33034C64.1142 2.28841 64.0918 2.26761 64.0478 2.26761H63.7372C63.7114 2.26761 63.6916 2.26292 63.6778 2.25353C63.6661 2.24413 63.6591 2.22803 63.657 2.20455C63.6497 2.15591 63.6463 2.09655 63.6463 2.02678C63.6463 1.95701 63.6497 1.89763 63.657 1.84866C63.6591 1.82518 63.6661 1.80908 63.6778 1.80003C63.6916 1.79063 63.7114 1.78594 63.7372 1.78594H64.5818C64.6284 1.78594 64.6623 1.79533 64.6831 1.81378C64.7043 1.83021 64.7147 1.86174 64.7147 1.90803V3.57277C64.7147 3.78912 64.7378 3.96254 64.7844 4.09269C64.8334 4.22082 64.9149 4.31508 65.029 4.37546C65.1427 4.43583 65.3023 4.46602 65.5073 4.46602C65.7236 4.46602 65.8957 4.42677 66.0238 4.34761C66.1516 4.2661 66.2439 4.14636 66.2996 3.98803C66.3556 3.83005 66.3834 3.62611 66.3834 3.37722V1.88019C66.3834 1.84766 66.3881 1.82518 66.3972 1.81378C66.4066 1.80003 66.4264 1.79063 66.4565 1.78594C66.5216 1.77654 66.5974 1.77185 66.6836 1.77185C66.7695 1.77185 66.8453 1.77654 66.9107 1.78594C66.9406 1.79063 66.9604 1.80003 66.9701 1.81378C66.9791 1.82518 66.9838 1.84766 66.9838 1.88019V4.35466ZM70.5823 3.10518C70.5823 2.88883 70.5578 2.71642 70.5092 2.58862C70.4626 2.45847 70.3824 2.36288 70.2684 2.3025C70.1543 2.24212 69.996 2.2116 69.7934 2.2116C69.4791 2.2116 69.248 2.29176 69.0987 2.45243C68.9521 2.61042 68.8787 2.8469 68.8787 3.16086V4.80447C68.8787 4.837 68.8743 4.86049 68.8649 4.87458C68.8555 4.88598 68.8357 4.89437 68.8056 4.89906C68.7405 4.90812 68.6647 4.91281 68.5785 4.91281C68.4926 4.91281 68.4168 4.90812 68.3517 4.89906C68.3215 4.89437 68.3017 4.88598 68.2924 4.87458C68.283 4.86049 68.2783 4.837 68.2783 4.80447V2.33034C68.2783 2.28841 68.2565 2.26761 68.2118 2.26761H67.9012C67.8757 2.26761 67.856 2.26292 67.8419 2.25353C67.8305 2.24413 67.8234 2.22803 67.8211 2.20455C67.814 2.15591 67.8103 2.09655 67.8103 2.02678C67.8103 1.95701 67.814 1.89763 67.8211 1.84866C67.8234 1.82518 67.8305 1.80908 67.8419 1.80003C67.856 1.79063 67.8757 1.78594 67.9012 1.78594H68.6415C68.6764 1.78594 68.7033 1.79298 68.7217 1.80673C68.7405 1.81847 68.7519 1.83927 68.7566 1.86946L68.7915 2.10694C68.7938 2.13042 68.8079 2.14183 68.8334 2.14183H68.8612C68.8753 2.14183 68.8857 2.14082 68.8928 2.13847C68.8998 2.13612 68.9102 2.12774 68.9243 2.11399C68.987 2.05361 69.0534 1.99793 69.1232 1.94627C69.1953 1.89529 69.299 1.84766 69.4338 1.80338C69.5713 1.7591 69.7354 1.73696 69.9262 1.73696C70.3683 1.73696 70.6883 1.83357 70.8862 2.02678C71.0841 2.21764 71.1831 2.5212 71.1831 2.93747V4.35466C71.1831 4.39625 71.2052 4.41738 71.2492 4.41738H71.4937C71.5195 4.41738 71.538 4.42174 71.5494 4.43147C71.5635 4.44053 71.5718 4.45663 71.5739 4.48011C71.5809 4.52908 71.5846 4.58845 71.5846 4.65822C71.5846 4.72799 71.5809 4.78736 71.5739 4.836C71.5718 4.85948 71.5635 4.87558 71.5494 4.88497C71.538 4.89436 71.5195 4.89906 71.4937 4.89906H71.1898C71.0388 4.89906 70.9211 4.88732 70.8372 4.86384C70.7534 4.83868 70.6897 4.78837 70.6454 4.7139C70.6035 4.63709 70.5823 4.52439 70.5823 4.37546V3.10518ZM73.0551 0.752815C73.0551 0.853108 73.0202 0.936965 72.9501 1.00405C72.8824 1.06946 72.7988 1.10199 72.6989 1.10199C72.5962 1.10199 72.5114 1.06946 72.444 1.00405C72.3762 0.936965 72.3427 0.853108 72.3427 0.752815C72.3427 0.655205 72.3762 0.572353 72.444 0.505268C72.5114 0.437846 72.5962 0.403967 72.6989 0.403967C72.7988 0.403967 72.8824 0.437846 72.9501 0.505268C73.0202 0.572353 73.0551 0.655205 73.0551 0.752815ZM72.4406 2.33034C72.4406 2.28841 72.4181 2.26761 72.3742 2.26761H72.0636C72.0378 2.26761 72.0183 2.26292 72.0042 2.25353C71.9925 2.24413 71.9854 2.22803 71.9831 2.20455C71.9764 2.15591 71.9727 2.09655 71.9727 2.02678C71.9727 1.95701 71.9764 1.89763 71.9831 1.84866C71.9854 1.82518 71.9925 1.80908 72.0042 1.80003C72.0183 1.79063 72.0378 1.78594 72.0636 1.78594H72.9082C72.9548 1.78594 72.9887 1.79533 73.0095 1.81378C73.0306 1.83021 73.041 1.86174 73.041 1.90803V4.35466C73.041 4.39625 73.0632 4.41738 73.1074 4.41738H73.3516C73.3771 4.41738 73.3959 4.42174 73.4077 4.43147C73.4214 4.44053 73.4295 4.45663 73.4321 4.48011C73.4389 4.52908 73.4425 4.58845 73.4425 4.65822C73.4425 4.72799 73.4389 4.78736 73.4321 4.836C73.4295 4.85948 73.4214 4.87558 73.4077 4.88497C73.3959 4.89436 73.3771 4.89906 73.3516 4.89906H73.0481C72.8965 4.89906 72.7791 4.88732 72.6955 4.86384C72.6117 4.83868 72.5476 4.78837 72.5033 4.7139C72.4614 4.63709 72.4406 4.52439 72.4406 4.37546V2.33034ZM74.7712 1.72321C74.7712 1.7648 74.793 1.78594 74.8372 1.78594H75.7835C75.809 1.78594 75.8274 1.79063 75.8392 1.80003C75.8533 1.80908 75.8613 1.82518 75.8637 1.84866C75.8707 1.89763 75.8744 1.95701 75.8744 2.02678C75.8744 2.09655 75.8707 2.15591 75.8637 2.20455C75.8613 2.22803 75.8533 2.24413 75.8392 2.25353C75.8274 2.26292 75.809 2.26761 75.7835 2.26761H74.8372C74.793 2.26761 74.7712 2.28841 74.7712 2.33034V3.79952C74.7712 3.97663 74.794 4.11281 74.8409 4.20808C74.8872 4.30099 74.9547 4.36506 75.0432 4.39994C75.1341 4.43248 75.2528 4.44891 75.3994 4.44891C75.5296 4.44891 75.6799 4.43248 75.8499 4.39994C75.8566 4.39726 75.8647 4.39625 75.8744 4.39625C75.8929 4.39625 75.9056 4.40229 75.9126 4.4137C75.9217 4.42309 75.9287 4.43919 75.9338 4.46267C75.9452 4.52774 75.9512 4.60221 75.9512 4.68606C75.9512 4.72564 75.9499 4.75483 75.9475 4.77327C75.9452 4.80112 75.9391 4.82091 75.9301 4.83265C75.9207 4.84204 75.9032 4.85009 75.8778 4.85713C75.7261 4.89906 75.5252 4.91986 75.2736 4.91986C74.538 4.91986 74.1704 4.56833 74.1704 3.86594V0.993651C74.1704 0.961114 74.1751 0.938977 74.1845 0.927237C74.1936 0.913484 74.2134 0.904093 74.2439 0.899397C74.309 0.890006 74.3848 0.885308 74.471 0.885308C74.5565 0.885308 74.6323 0.890006 74.6977 0.899397C74.7279 0.904093 74.7477 0.913484 74.7571 0.927237C74.7661 0.938977 74.7712 0.961114 74.7712 0.993651V1.72321ZM77.5539 4.89906C77.4912 4.89906 77.4459 4.89302 77.4181 4.88128C77.3922 4.86753 77.3714 4.83868 77.355 4.79441L76.2484 1.87684C76.2437 1.85806 76.2414 1.84531 76.2414 1.83826C76.2414 1.80573 76.2658 1.78594 76.3145 1.77889C76.3728 1.77185 76.4507 1.76849 76.5486 1.76849C76.6627 1.76849 76.7509 1.77185 76.8139 1.77889C76.8532 1.78359 76.88 1.79298 76.8941 1.80673C76.9082 1.81847 76.922 1.8443 76.936 1.88355L77.8192 4.41034C77.8239 4.42409 77.83 4.43382 77.8367 4.43818C77.8464 4.44288 77.8588 4.44522 77.8752 4.44522H77.9135C77.9299 4.44522 77.9413 4.44288 77.9484 4.43818C77.9578 4.43382 77.9648 4.42409 77.9695 4.41034L78.8527 1.88355C78.8668 1.8443 78.8805 1.81847 78.8946 1.80673C78.9087 1.79298 78.9355 1.78359 78.9748 1.77889C79.0285 1.77185 79.1029 1.76849 79.1982 1.76849C79.2891 1.76849 79.3659 1.77185 79.4286 1.77889C79.4776 1.78594 79.5021 1.80573 79.5021 1.83826C79.5021 1.84531 79.4997 1.85806 79.495 1.87684L77.9903 5.84799C77.9739 5.88757 77.9588 5.9134 77.945 5.9248C77.9309 5.93889 77.9054 5.94828 77.8682 5.95298C77.8055 5.96002 77.7206 5.96338 77.6133 5.96338C77.52 5.96338 77.4432 5.96002 77.3828 5.95298C77.3342 5.94593 77.3097 5.92615 77.3097 5.89361C77.3097 5.88657 77.3121 5.87382 77.3167 5.85537L77.6726 4.94065C77.675 4.93629 77.676 4.93026 77.676 4.92321C77.676 4.90711 77.6656 4.89906 77.6448 4.89906H77.5539Z" fill="#B095E3" style="fill:#B095E3;fill:color(display-p3 0.6902 0.5843 0.8902);fill-opacity:1;"/>
</svg>
